<svg xmlns="http://www.w3.org/2000/svg" xmlns:xlink="http://www.w3.org/1999/xlink" width="500" zoomAndPan="magnify" viewBox="0 0 375 374.999991" height="500" preserveAspectRatio="xMidYMid meet" version="1.0"><defs><g/><clipPath id="4f6799e3d3"><path d="M 77.375 133.304688 L 297.875 133.304688 L 297.875 185 L 77.375 185 Z M 77.375 133.304688 " clip-rule="nonzero"/></clipPath><clipPath id="28f766d25a"><path d="M 212 188 L 297.875 188 L 297.875 191 L 212 191 Z M 212 188 " clip-rule="nonzero"/></clipPath><clipPath id="856cb3ceef"><path d="M 77.375 188 L 163 188 L 163 191 L 77.375 191 Z M 77.375 188 " clip-rule="nonzero"/></clipPath></defs><rect x="-37.5" width="450" fill="#ffffff" y="-37.499999" height="449.999989" fill-opacity="1"/><rect x="-37.5" width="450" fill="#001f3d" y="-37.499999" height="449.999989" fill-opacity="1"/><g fill="#f8dcbf" fill-opacity="1"><g transform="translate(63.923393, 216.910224)"><g><path d="M 3.890625 0 L 3.890625 -0.296875 C 4.234375 -0.398438 4.453125 -0.628906 4.546875 -0.984375 C 4.648438 -1.335938 4.703125 -1.882812 4.703125 -2.625 L 4.703125 -14.09375 L 4.0625 -14.09375 C 3.144531 -14.09375 2.421875 -13.9375 1.890625 -13.625 C 1.367188 -13.3125 0.914062 -12.742188 0.53125 -11.921875 L 0.296875 -11.953125 L 0.40625 -14.453125 L 11.171875 -14.453125 L 11.296875 -11.953125 L 11.046875 -11.921875 C 10.660156 -12.742188 10.207031 -13.3125 9.6875 -13.625 C 9.164062 -13.9375 8.441406 -14.09375 7.515625 -14.09375 L 6.921875 -14.09375 L 6.921875 -2.625 C 6.921875 -1.882812 6.972656 -1.335938 7.078125 -0.984375 C 7.179688 -0.628906 7.40625 -0.398438 7.75 -0.296875 L 7.75 0 Z M 3.890625 0 "/></g></g></g><g fill="#f8dcbf" fill-opacity="1"><g transform="translate(80.403559, 216.910224)"><g><path d="M 0.96875 0 L 0.96875 -0.296875 C 1.3125 -0.398438 1.535156 -0.628906 1.640625 -0.984375 C 1.742188 -1.335938 1.796875 -1.882812 1.796875 -2.625 L 1.796875 -11.84375 C 1.796875 -12.582031 1.742188 -13.125 1.640625 -13.46875 C 1.535156 -13.820312 1.3125 -14.054688 0.96875 -14.171875 L 0.96875 -14.453125 L 4.8125 -14.453125 L 4.8125 -14.171875 C 4.46875 -14.054688 4.242188 -13.820312 4.140625 -13.46875 C 4.035156 -13.125 3.984375 -12.582031 3.984375 -11.84375 L 3.984375 -2.625 C 3.984375 -1.882812 4.035156 -1.335938 4.140625 -0.984375 C 4.242188 -0.628906 4.46875 -0.398438 4.8125 -0.296875 L 4.8125 0 Z M 0.96875 0 "/></g></g></g><g fill="#f8dcbf" fill-opacity="1"><g transform="translate(91.102182, 216.910224)"><g><path d="M 0.96875 0 L 0.96875 -0.296875 C 1.3125 -0.398438 1.535156 -0.628906 1.640625 -0.984375 C 1.742188 -1.335938 1.796875 -1.882812 1.796875 -2.625 L 1.796875 -11.84375 C 1.796875 -12.582031 1.742188 -13.125 1.640625 -13.46875 C 1.535156 -13.820312 1.3125 -14.054688 0.96875 -14.171875 L 0.96875 -14.453125 L 6.140625 -14.453125 C 7.617188 -14.453125 8.863281 -14.238281 9.875 -13.8125 C 10.894531 -13.382812 11.707031 -12.820312 12.3125 -12.125 C 12.914062 -11.4375 13.351562 -10.6875 13.625 -9.875 C 13.90625 -9.0625 14.046875 -8.273438 14.046875 -7.515625 C 14.054688 -6.023438 13.753906 -4.71875 13.140625 -3.59375 C 12.535156 -2.46875 11.671875 -1.585938 10.546875 -0.953125 C 9.421875 -0.316406 8.101562 0 6.59375 0 Z M 3.984375 -1.84375 C 3.984375 -1.351562 4.066406 -0.976562 4.234375 -0.71875 C 4.398438 -0.457031 4.765625 -0.328125 5.328125 -0.328125 L 6.4375 -0.328125 C 8.101562 -0.328125 9.378906 -0.804688 10.265625 -1.765625 C 11.160156 -2.722656 11.609375 -4.300781 11.609375 -6.5 C 11.609375 -7.925781 11.359375 -9.210938 10.859375 -10.359375 C 10.367188 -11.503906 9.625 -12.414062 8.625 -13.09375 C 7.625 -13.78125 6.351562 -14.125 4.8125 -14.125 L 3.984375 -14.125 Z M 3.984375 -1.84375 "/></g></g></g><g fill="#f8dcbf" fill-opacity="1"><g transform="translate(111.113217, 216.910224)"><g><path d="M 0.96875 0 L 0.96875 -0.296875 C 1.3125 -0.398438 1.535156 -0.628906 1.640625 -0.984375 C 1.742188 -1.335938 1.796875 -1.882812 1.796875 -2.625 L 1.796875 -11.84375 C 1.796875 -12.582031 1.742188 -13.125 1.640625 -13.46875 C 1.535156 -13.820312 1.3125 -14.054688 0.96875 -14.171875 L 0.96875 -14.453125 L 10.890625 -14.453125 L 11.109375 -11.546875 L 10.84375 -11.484375 C 10.425781 -12.503906 9.867188 -13.195312 9.171875 -13.5625 C 8.484375 -13.9375 7.5625 -14.125 6.40625 -14.125 L 3.984375 -14.125 L 3.984375 -7.9375 L 5.96875 -7.9375 C 6.8125 -7.9375 7.472656 -7.988281 7.953125 -8.09375 C 8.429688 -8.207031 8.785156 -8.378906 9.015625 -8.609375 C 9.253906 -8.847656 9.429688 -9.144531 9.546875 -9.5 L 9.828125 -9.5 L 9.828125 -6.03125 L 9.546875 -6.03125 C 9.429688 -6.382812 9.253906 -6.675781 9.015625 -6.90625 C 8.785156 -7.144531 8.429688 -7.316406 7.953125 -7.421875 C 7.472656 -7.535156 6.8125 -7.59375 5.96875 -7.59375 L 3.984375 -7.59375 L 3.984375 -1.359375 C 3.984375 -0.671875 4.328125 -0.328125 5.015625 -0.328125 L 7 -0.328125 C 8.050781 -0.328125 8.929688 -0.519531 9.640625 -0.90625 C 10.359375 -1.289062 10.910156 -2.007812 11.296875 -3.0625 L 11.5625 -3.015625 L 11.421875 0 Z M 0.96875 0 "/></g></g></g><g fill="#f8dcbf" fill-opacity="1"><g transform="translate(128.316066, 216.910224)"><g><path d="M 11.484375 0.140625 C 10.921875 0.140625 10.46875 0.015625 10.125 -0.234375 C 9.789062 -0.492188 9.492188 -0.882812 9.234375 -1.40625 C 8.984375 -1.925781 8.691406 -2.585938 8.359375 -3.390625 C 8.054688 -4.148438 7.800781 -4.785156 7.59375 -5.296875 C 7.394531 -5.816406 7.195312 -6.226562 7 -6.53125 C 6.8125 -6.84375 6.578125 -7.066406 6.296875 -7.203125 C 6.023438 -7.347656 5.660156 -7.421875 5.203125 -7.421875 L 3.984375 -7.421875 L 3.984375 -2.625 C 3.984375 -1.882812 4.035156 -1.335938 4.140625 -0.984375 C 4.242188 -0.628906 4.46875 -0.398438 4.8125 -0.296875 L 4.8125 0 L 0.96875 0 L 0.96875 -0.296875 C 1.3125 -0.398438 1.535156 -0.628906 1.640625 -0.984375 C 1.742188 -1.335938 1.796875 -1.882812 1.796875 -2.625 L 1.796875 -11.84375 C 1.796875 -12.582031 1.742188 -13.125 1.640625 -13.46875 C 1.535156 -13.820312 1.3125 -14.054688 0.96875 -14.171875 L 0.96875 -14.453125 L 5.3125 -14.453125 C 6.4375 -14.453125 7.351562 -14.359375 8.0625 -14.171875 C 8.769531 -13.992188 9.316406 -13.75 9.703125 -13.4375 C 10.085938 -13.125 10.351562 -12.769531 10.5 -12.375 C 10.65625 -11.976562 10.734375 -11.570312 10.734375 -11.15625 C 10.734375 -10.207031 10.40625 -9.398438 9.75 -8.734375 C 9.09375 -8.078125 8.070312 -7.664062 6.6875 -7.5 C 7.269531 -7.425781 7.75 -7.304688 8.125 -7.140625 C 8.507812 -6.984375 8.832031 -6.75 9.09375 -6.4375 C 9.363281 -6.125 9.609375 -5.726562 9.828125 -5.25 C 10.046875 -4.78125 10.296875 -4.203125 10.578125 -3.515625 C 10.953125 -2.597656 11.238281 -1.90625 11.4375 -1.4375 C 11.644531 -0.976562 11.835938 -0.664062 12.015625 -0.5 C 12.203125 -0.34375 12.414062 -0.265625 12.65625 -0.265625 C 12.71875 -0.265625 12.769531 -0.265625 12.8125 -0.265625 C 12.863281 -0.265625 12.914062 -0.273438 12.96875 -0.296875 L 12.96875 0 C 12.738281 0.0507812 12.476562 0.0859375 12.1875 0.109375 C 11.894531 0.128906 11.660156 0.140625 11.484375 0.140625 Z M 3.984375 -7.75 L 5.3125 -7.75 C 6.09375 -7.75 6.71875 -7.878906 7.1875 -8.140625 C 7.664062 -8.398438 8.007812 -8.753906 8.21875 -9.203125 C 8.4375 -9.648438 8.546875 -10.132812 8.546875 -10.65625 C 8.546875 -11.21875 8.421875 -11.765625 8.171875 -12.296875 C 7.929688 -12.828125 7.539062 -13.265625 7 -13.609375 C 6.46875 -13.953125 5.765625 -14.125 4.890625 -14.125 C 4.609375 -14.125 4.304688 -14.101562 3.984375 -14.0625 Z M 3.984375 -7.75 "/></g></g></g><g fill="#f8dcbf" fill-opacity="1"><g transform="translate(145.993834, 216.910224)"><g><path d="M 0.96875 0 L 0.96875 -0.296875 C 1.3125 -0.398438 1.535156 -0.628906 1.640625 -0.984375 C 1.742188 -1.335938 1.796875 -1.882812 1.796875 -2.625 L 1.796875 -11.84375 C 1.796875 -12.582031 1.742188 -13.125 1.640625 -13.46875 C 1.535156 -13.820312 1.3125 -14.054688 0.96875 -14.171875 L 0.96875 -14.453125 L 4.8125 -14.453125 L 4.8125 -14.171875 C 4.46875 -14.054688 4.242188 -13.820312 4.140625 -13.46875 C 4.035156 -13.125 3.984375 -12.582031 3.984375 -11.84375 L 3.984375 -2.625 C 3.984375 -1.882812 4.035156 -1.335938 4.140625 -0.984375 C 4.242188 -0.628906 4.46875 -0.398438 4.8125 -0.296875 L 4.8125 0 Z M 0.96875 0 "/></g></g></g><g fill="#f8dcbf" fill-opacity="1"><g transform="translate(156.692456, 216.910224)"><g><path d="M 5.90625 0.203125 C 4.84375 0.203125 3.859375 0.0546875 2.953125 -0.234375 C 2.046875 -0.535156 1.332031 -0.878906 0.8125 -1.265625 L 0.71875 -4.359375 L 0.984375 -4.40625 C 1.273438 -3.613281 1.671875 -2.90625 2.171875 -2.28125 C 2.679688 -1.65625 3.289062 -1.15625 4 -0.78125 C 4.71875 -0.414062 5.53125 -0.234375 6.4375 -0.234375 C 6.925781 -0.234375 7.375 -0.332031 7.78125 -0.53125 C 8.195312 -0.726562 8.535156 -1.019531 8.796875 -1.40625 C 9.054688 -1.789062 9.1875 -2.265625 9.1875 -2.828125 C 9.1875 -3.335938 9.039062 -3.78125 8.75 -4.15625 C 8.46875 -4.539062 8.101562 -4.875 7.65625 -5.15625 C 7.207031 -5.4375 6.734375 -5.679688 6.234375 -5.890625 C 5.742188 -6.109375 5.289062 -6.300781 4.875 -6.46875 C 4.175781 -6.769531 3.53125 -7.070312 2.9375 -7.375 C 2.34375 -7.675781 1.863281 -8.0625 1.5 -8.53125 C 1.144531 -9.007812 0.96875 -9.648438 0.96875 -10.453125 C 0.96875 -11.734375 1.445312 -12.742188 2.40625 -13.484375 C 3.363281 -14.234375 4.65625 -14.609375 6.28125 -14.609375 C 7.050781 -14.609375 7.769531 -14.53125 8.4375 -14.375 C 9.101562 -14.226562 9.707031 -14.015625 10.25 -13.734375 L 10.328125 -11.046875 L 10.09375 -10.96875 C 9.664062 -12.03125 9.039062 -12.84375 8.21875 -13.40625 C 7.40625 -13.96875 6.5 -14.25 5.5 -14.25 C 4.664062 -14.25 3.960938 -14.019531 3.390625 -13.5625 C 2.828125 -13.101562 2.546875 -12.46875 2.546875 -11.65625 C 2.546875 -11.195312 2.65625 -10.796875 2.875 -10.453125 C 3.101562 -10.117188 3.40625 -9.828125 3.78125 -9.578125 C 4.164062 -9.335938 4.570312 -9.125 5 -8.9375 C 5.4375 -8.75 5.863281 -8.570312 6.28125 -8.40625 C 6.800781 -8.195312 7.332031 -7.972656 7.875 -7.734375 C 8.425781 -7.503906 8.925781 -7.226562 9.375 -6.90625 C 9.832031 -6.59375 10.195312 -6.21875 10.46875 -5.78125 C 10.75 -5.34375 10.890625 -4.8125 10.890625 -4.1875 C 10.890625 -3.488281 10.742188 -2.863281 10.453125 -2.3125 C 10.160156 -1.757812 9.773438 -1.296875 9.296875 -0.921875 C 8.816406 -0.554688 8.28125 -0.273438 7.6875 -0.078125 C 7.09375 0.109375 6.5 0.203125 5.90625 0.203125 Z M 5.90625 0.203125 "/></g></g></g><g fill="#f8dcbf" fill-opacity="1"><g transform="translate(173.028084, 216.910224)"><g><path d="M 0.96875 0 L 0.96875 -0.296875 C 1.3125 -0.398438 1.535156 -0.628906 1.640625 -0.984375 C 1.742188 -1.335938 1.796875 -1.882812 1.796875 -2.625 L 1.796875 -11.84375 C 1.796875 -12.582031 1.742188 -13.125 1.640625 -13.46875 C 1.535156 -13.820312 1.3125 -14.054688 0.96875 -14.171875 L 0.96875 -14.453125 L 10.890625 -14.453125 L 11.109375 -11.546875 L 10.84375 -11.484375 C 10.425781 -12.503906 9.867188 -13.195312 9.171875 -13.5625 C 8.484375 -13.9375 7.5625 -14.125 6.40625 -14.125 L 3.984375 -14.125 L 3.984375 -7.9375 L 5.96875 -7.9375 C 6.8125 -7.9375 7.472656 -7.988281 7.953125 -8.09375 C 8.429688 -8.207031 8.785156 -8.378906 9.015625 -8.609375 C 9.253906 -8.847656 9.429688 -9.144531 9.546875 -9.5 L 9.828125 -9.5 L 9.828125 -6.03125 L 9.546875 -6.03125 C 9.429688 -6.382812 9.253906 -6.675781 9.015625 -6.90625 C 8.785156 -7.144531 8.429688 -7.316406 7.953125 -7.421875 C 7.472656 -7.535156 6.8125 -7.59375 5.96875 -7.59375 L 3.984375 -7.59375 L 3.984375 -1.359375 C 3.984375 -0.671875 4.328125 -0.328125 5.015625 -0.328125 L 7 -0.328125 C 8.050781 -0.328125 8.929688 -0.519531 9.640625 -0.90625 C 10.359375 -1.289062 10.910156 -2.007812 11.296875 -3.0625 L 11.5625 -3.015625 L 11.421875 0 Z M 0.96875 0 "/></g></g></g><g fill="#f8dcbf" fill-opacity="1"><g transform="translate(190.230933, 216.910224)"><g/></g></g><g fill="#f8dcbf" fill-opacity="1"><g transform="translate(199.277682, 216.910224)"><g><path d="M 9.09375 0.203125 C 7.445312 0.203125 6.023438 -0.0703125 4.828125 -0.625 C 3.628906 -1.1875 2.707031 -2 2.0625 -3.0625 C 1.425781 -4.132812 1.109375 -5.441406 1.109375 -6.984375 C 1.109375 -8.023438 1.304688 -9.003906 1.703125 -9.921875 C 2.097656 -10.835938 2.660156 -11.644531 3.390625 -12.34375 C 4.128906 -13.050781 5.007812 -13.601562 6.03125 -14 C 7.0625 -14.40625 8.210938 -14.609375 9.484375 -14.609375 C 9.992188 -14.609375 10.546875 -14.570312 11.140625 -14.5 C 11.742188 -14.425781 12.316406 -14.316406 12.859375 -14.171875 C 13.398438 -14.035156 13.851562 -13.84375 14.21875 -13.59375 L 14.296875 -10.859375 L 14.046875 -10.796875 C 13.773438 -11.515625 13.367188 -12.125 12.828125 -12.625 C 12.285156 -13.132812 11.679688 -13.523438 11.015625 -13.796875 C 10.347656 -14.078125 9.65625 -14.21875 8.9375 -14.21875 C 7.84375 -14.21875 6.867188 -13.972656 6.015625 -13.484375 C 5.171875 -13.003906 4.507812 -12.300781 4.03125 -11.375 C 3.550781 -10.445312 3.3125 -9.289062 3.3125 -7.90625 C 3.3125 -6.914062 3.453125 -5.957031 3.734375 -5.03125 C 4.023438 -4.113281 4.441406 -3.289062 4.984375 -2.5625 C 5.523438 -1.84375 6.191406 -1.273438 6.984375 -0.859375 C 7.785156 -0.441406 8.6875 -0.234375 9.6875 -0.234375 C 10.84375 -0.234375 11.8125 -0.554688 12.59375 -1.203125 C 13.382812 -1.847656 13.960938 -2.707031 14.328125 -3.78125 L 14.609375 -3.734375 L 14.28125 -0.78125 C 13.726562 -0.53125 13.039062 -0.300781 12.21875 -0.09375 C 11.394531 0.101562 10.351562 0.203125 9.09375 0.203125 Z M 9.09375 0.203125 "/></g></g></g><g fill="#f8dcbf" fill-opacity="1"><g transform="translate(219.701677, 216.910224)"><g><path d="M -0.4375 0 L -0.4375 -0.296875 C -0.113281 -0.398438 0.1875 -0.609375 0.46875 -0.921875 C 0.75 -1.242188 1.023438 -1.75 1.296875 -2.4375 L 5.171875 -12.015625 C 5.316406 -12.398438 5.300781 -12.773438 5.125 -13.140625 L 4.859375 -13.71875 L 6.875 -14.625 L 12 -2.421875 C 12.289062 -1.742188 12.566406 -1.242188 12.828125 -0.921875 C 13.097656 -0.609375 13.351562 -0.398438 13.59375 -0.296875 L 13.59375 0 L 9.828125 0 L 9.828125 -0.296875 C 10.171875 -0.398438 10.296875 -0.609375 10.203125 -0.921875 C 10.117188 -1.242188 9.929688 -1.742188 9.640625 -2.421875 L 8.40625 -5.390625 L 2.890625 -5.390625 L 1.6875 -2.4375 C 1.414062 -1.75 1.304688 -1.238281 1.359375 -0.90625 C 1.421875 -0.570312 1.625 -0.367188 1.96875 -0.296875 L 1.96875 0 Z M 3.015625 -5.71875 L 8.265625 -5.71875 L 5.59375 -12.109375 Z M 3.015625 -5.71875 "/></g></g></g><g fill="#f8dcbf" fill-opacity="1"><g transform="translate(237.895653, 216.910224)"><g><path d="M 0.96875 0 L 0.96875 -0.296875 C 1.3125 -0.398438 1.535156 -0.628906 1.640625 -0.984375 C 1.742188 -1.335938 1.796875 -1.882812 1.796875 -2.625 L 1.796875 -11.84375 C 1.796875 -12.582031 1.742188 -13.125 1.640625 -13.46875 C 1.535156 -13.820312 1.3125 -14.054688 0.96875 -14.171875 L 0.96875 -14.453125 L 5.3125 -14.453125 C 6.488281 -14.453125 7.453125 -14.320312 8.203125 -14.0625 C 8.960938 -13.8125 9.550781 -13.484375 9.96875 -13.078125 C 10.382812 -12.671875 10.675781 -12.234375 10.84375 -11.765625 C 11.007812 -11.304688 11.09375 -10.867188 11.09375 -10.453125 C 11.09375 -9.597656 10.878906 -8.804688 10.453125 -8.078125 C 10.023438 -7.347656 9.363281 -6.765625 8.46875 -6.328125 C 7.570312 -5.898438 6.414062 -5.6875 5 -5.6875 L 3.984375 -5.6875 L 3.984375 -2.625 C 3.984375 -1.882812 4.035156 -1.335938 4.140625 -0.984375 C 4.242188 -0.628906 4.46875 -0.398438 4.8125 -0.296875 L 4.8125 0 Z M 3.984375 -6.015625 L 4.890625 -6.015625 C 6.242188 -6.015625 7.226562 -6.367188 7.84375 -7.078125 C 8.457031 -7.796875 8.765625 -8.742188 8.765625 -9.921875 C 8.765625 -10.359375 8.703125 -10.820312 8.578125 -11.3125 C 8.453125 -11.800781 8.234375 -12.257812 7.921875 -12.6875 C 7.609375 -13.113281 7.179688 -13.457031 6.640625 -13.71875 C 6.109375 -13.988281 5.4375 -14.125 4.625 -14.125 C 4.394531 -14.125 4.179688 -14.113281 3.984375 -14.09375 Z M 3.984375 -6.015625 "/></g></g></g><g fill="#f8dcbf" fill-opacity="1"><g transform="translate(254.355162, 216.910224)"><g><path d="M 0.96875 0 L 0.96875 -0.296875 C 1.3125 -0.398438 1.535156 -0.628906 1.640625 -0.984375 C 1.742188 -1.335938 1.796875 -1.882812 1.796875 -2.625 L 1.796875 -11.84375 C 1.796875 -12.582031 1.742188 -13.125 1.640625 -13.46875 C 1.535156 -13.820312 1.3125 -14.054688 0.96875 -14.171875 L 0.96875 -14.453125 L 4.8125 -14.453125 L 4.8125 -14.171875 C 4.46875 -14.054688 4.242188 -13.820312 4.140625 -13.46875 C 4.035156 -13.125 3.984375 -12.582031 3.984375 -11.84375 L 3.984375 -2.625 C 3.984375 -1.882812 4.035156 -1.335938 4.140625 -0.984375 C 4.242188 -0.628906 4.46875 -0.398438 4.8125 -0.296875 L 4.8125 0 Z M 0.96875 0 "/></g></g></g><g fill="#f8dcbf" fill-opacity="1"><g transform="translate(265.053796, 216.910224)"><g><path d="M 3.890625 0 L 3.890625 -0.296875 C 4.234375 -0.398438 4.453125 -0.628906 4.546875 -0.984375 C 4.648438 -1.335938 4.703125 -1.882812 4.703125 -2.625 L 4.703125 -14.09375 L 4.0625 -14.09375 C 3.144531 -14.09375 2.421875 -13.9375 1.890625 -13.625 C 1.367188 -13.3125 0.914062 -12.742188 0.53125 -11.921875 L 0.296875 -11.953125 L 0.40625 -14.453125 L 11.171875 -14.453125 L 11.296875 -11.953125 L 11.046875 -11.921875 C 10.660156 -12.742188 10.207031 -13.3125 9.6875 -13.625 C 9.164062 -13.9375 8.441406 -14.09375 7.515625 -14.09375 L 6.921875 -14.09375 L 6.921875 -2.625 C 6.921875 -1.882812 6.972656 -1.335938 7.078125 -0.984375 C 7.179688 -0.628906 7.40625 -0.398438 7.75 -0.296875 L 7.75 0 Z M 3.890625 0 "/></g></g></g><g fill="#f8dcbf" fill-opacity="1"><g transform="translate(281.533951, 216.910224)"><g><path d="M -0.4375 0 L -0.4375 -0.296875 C -0.113281 -0.398438 0.1875 -0.609375 0.46875 -0.921875 C 0.75 -1.242188 1.023438 -1.75 1.296875 -2.4375 L 5.171875 -12.015625 C 5.316406 -12.398438 5.300781 -12.773438 5.125 -13.140625 L 4.859375 -13.71875 L 6.875 -14.625 L 12 -2.421875 C 12.289062 -1.742188 12.566406 -1.242188 12.828125 -0.921875 C 13.097656 -0.609375 13.351562 -0.398438 13.59375 -0.296875 L 13.59375 0 L 9.828125 0 L 9.828125 -0.296875 C 10.171875 -0.398438 10.296875 -0.609375 10.203125 -0.921875 C 10.117188 -1.242188 9.929688 -1.742188 9.640625 -2.421875 L 8.40625 -5.390625 L 2.890625 -5.390625 L 1.6875 -2.4375 C 1.414062 -1.75 1.304688 -1.238281 1.359375 -0.90625 C 1.421875 -0.570312 1.625 -0.367188 1.96875 -0.296875 L 1.96875 0 Z M 3.015625 -5.71875 L 8.265625 -5.71875 L 5.59375 -12.109375 Z M 3.015625 -5.71875 "/></g></g></g><g fill="#f8dcbf" fill-opacity="1"><g transform="translate(299.727927, 216.910224)"><g><path d="M 0.96875 0 L 0.96875 -0.296875 C 1.3125 -0.398438 1.535156 -0.628906 1.640625 -0.984375 C 1.742188 -1.335938 1.796875 -1.882812 1.796875 -2.625 L 1.796875 -11.84375 C 1.796875 -12.582031 1.742188 -13.125 1.640625 -13.46875 C 1.535156 -13.820312 1.3125 -14.054688 0.96875 -14.171875 L 0.96875 -14.453125 L 4.8125 -14.453125 L 4.8125 -14.171875 C 4.46875 -14.054688 4.242188 -13.820312 4.140625 -13.46875 C 4.035156 -13.125 3.984375 -12.582031 3.984375 -11.84375 L 3.984375 -1.40625 C 3.984375 -0.71875 4.328125 -0.375 5.015625 -0.375 L 6.71875 -0.375 C 7.757812 -0.375 8.578125 -0.53125 9.171875 -0.84375 C 9.773438 -1.164062 10.285156 -1.765625 10.703125 -2.640625 L 10.96875 -2.609375 L 10.796875 0 Z M 0.96875 0 "/></g></g></g><g fill="#e87a00" fill-opacity="1"><g transform="translate(76.537441, 239.869043)"><g><path d="M 4.640625 -3.5625 L 5.9375 -7.671875 L 5.609375 -8.5625 L 4.75 -8.796875 L 4.53125 -8.859375 L 4.484375 -9.078125 C 4.472656 -9.160156 4.46875 -9.242188 4.46875 -9.328125 C 4.476562 -9.472656 4.519531 -9.613281 4.59375 -9.75 L 4.6875 -9.953125 L 4.90625 -9.953125 C 5.3125 -9.921875 5.671875 -9.898438 5.984375 -9.890625 C 6.296875 -9.878906 6.554688 -9.875 6.765625 -9.875 C 7.148438 -9.875 7.765625 -9.898438 8.609375 -9.953125 L 8.90625 -9.953125 L 8.96875 -9.65625 C 8.96875 -9.632812 8.96875 -9.609375 8.96875 -9.578125 C 8.976562 -9.554688 8.984375 -9.535156 8.984375 -9.515625 C 8.984375 -9.492188 8.984375 -9.472656 8.984375 -9.453125 C 8.992188 -9.296875 8.972656 -9.15625 8.921875 -9.03125 L 8.859375 -8.828125 L 8.65625 -8.78125 C 8.625 -8.78125 8.585938 -8.773438 8.546875 -8.765625 C 8.503906 -8.765625 8.445312 -8.757812 8.375 -8.75 C 8.34375 -8.75 8.304688 -8.742188 8.265625 -8.734375 C 8.234375 -8.722656 8.203125 -8.710938 8.171875 -8.703125 C 8.148438 -8.703125 8.128906 -8.703125 8.109375 -8.703125 C 8.054688 -8.691406 7.992188 -8.679688 7.921875 -8.671875 L 9.515625 -3.671875 C 9.554688 -3.523438 9.597656 -3.378906 9.640625 -3.234375 C 9.691406 -3.097656 9.726562 -2.972656 9.75 -2.859375 C 9.820312 -3.117188 9.894531 -3.390625 9.96875 -3.671875 L 10.046875 -3.921875 L 11.265625 -8.59375 L 10.421875 -8.796875 L 10.203125 -8.84375 L 10.171875 -9.078125 C 10.160156 -9.160156 10.15625 -9.238281 10.15625 -9.3125 C 10.164062 -9.46875 10.207031 -9.613281 10.28125 -9.75 L 10.375 -9.953125 L 10.609375 -9.953125 C 11.316406 -9.898438 11.816406 -9.875 12.109375 -9.875 C 12.265625 -9.875 12.460938 -9.878906 12.703125 -9.890625 C 12.941406 -9.898438 13.222656 -9.921875 13.546875 -9.953125 L 13.859375 -9.96875 L 13.90625 -9.65625 C 13.925781 -9.550781 13.929688 -9.441406 13.921875 -9.328125 C 13.910156 -9.222656 13.894531 -9.125 13.875 -9.03125 L 13.796875 -8.828125 L 13.59375 -8.78125 C 13.226562 -8.71875 12.9375 -8.65625 12.71875 -8.59375 L 11.34375 -3.65625 L 10.234375 0.375 L 10.1875 0.515625 L 10.0625 0.578125 C 9.945312 0.628906 9.820312 0.664062 9.6875 0.6875 C 9.5625 0.71875 9.40625 0.738281 9.21875 0.75 L 8.984375 0.765625 L 8.890625 0.515625 L 6.6875 -5.578125 L 6.140625 -3.890625 L 4.78125 0.375 L 4.75 0.5 L 4.625 0.578125 C 4.519531 0.628906 4.40625 0.664062 4.28125 0.6875 C 4.15625 0.71875 4.007812 0.738281 3.84375 0.75 L 3.578125 0.765625 L 3.484375 0.515625 L 0.53125 -8.5625 L -0.328125 -8.796875 L -0.546875 -8.859375 L -0.578125 -9.078125 C -0.585938 -9.160156 -0.59375 -9.242188 -0.59375 -9.328125 C -0.582031 -9.472656 -0.539062 -9.613281 -0.46875 -9.75 L -0.375 -9.953125 L -0.15625 -9.953125 C 0.113281 -9.929688 0.359375 -9.914062 0.578125 -9.90625 C 0.804688 -9.894531 1.015625 -9.882812 1.203125 -9.875 C 1.390625 -9.875 1.550781 -9.875 1.6875 -9.875 C 2.082031 -9.875 2.703125 -9.898438 3.546875 -9.953125 L 3.84375 -9.953125 L 3.90625 -9.65625 C 3.90625 -9.570312 3.90625 -9.492188 3.90625 -9.421875 C 3.90625 -9.347656 3.898438 -9.273438 3.890625 -9.203125 C 3.890625 -9.140625 3.878906 -9.078125 3.859375 -9.015625 L 3.796875 -8.8125 L 3.578125 -8.78125 C 3.441406 -8.78125 3.300781 -8.765625 3.15625 -8.734375 C 3.019531 -8.703125 2.898438 -8.671875 2.796875 -8.640625 L 4.140625 -3.59375 C 4.191406 -3.4375 4.234375 -3.285156 4.265625 -3.140625 C 4.304688 -2.992188 4.34375 -2.851562 4.375 -2.71875 C 4.457031 -2.988281 4.546875 -3.269531 4.640625 -3.5625 Z M 4.640625 -3.5625 "/></g></g></g><g fill="#e87a00" fill-opacity="1"><g transform="translate(98.417467, 239.869043)"><g><path d="M 5.296875 -4.15625 L 3.375 -4.15625 L 3.375 -0.953125 L 6.703125 -0.953125 L 6.9375 -2.484375 L 6.96875 -2.71875 L 7.203125 -2.765625 C 7.328125 -2.785156 7.445312 -2.789062 7.5625 -2.78125 C 7.675781 -2.769531 7.789062 -2.742188 7.90625 -2.703125 L 8.046875 -2.625 L 8.078125 -2.46875 C 8.210938 -1.90625 8.269531 -1.082031 8.25 0 L 8.25 0.34375 L 2.359375 0.34375 L 0.5625 0.40625 L 0.265625 0.421875 L 0.203125 0.125 C 0.171875 -0.101562 0.1875 -0.3125 0.25 -0.5 L 0.3125 -0.703125 L 0.5 -0.75 C 0.8125 -0.800781 1.066406 -0.859375 1.265625 -0.921875 L 1.265625 -8.59375 L 0.484375 -8.796875 L 0.265625 -8.859375 L 0.21875 -9.078125 C 0.175781 -9.316406 0.210938 -9.539062 0.328125 -9.75 L 0.421875 -9.953125 L 0.640625 -9.953125 C 1.046875 -9.921875 1.382812 -9.898438 1.65625 -9.890625 C 1.9375 -9.878906 2.144531 -9.875 2.28125 -9.875 L 7.875 -9.875 L 7.875 -9.53125 C 7.894531 -8.59375 7.84375 -7.78125 7.71875 -7.09375 L 7.6875 -6.90625 L 7.5 -6.84375 C 7.394531 -6.789062 7.285156 -6.765625 7.171875 -6.765625 C 7.066406 -6.765625 6.957031 -6.765625 6.84375 -6.765625 L 6.609375 -6.8125 L 6.546875 -7.046875 L 6.25 -8.578125 L 3.375 -8.578125 L 3.375 -5.59375 L 5.296875 -5.59375 L 5.5 -6.515625 L 5.546875 -6.71875 L 5.734375 -6.765625 C 5.910156 -6.828125 6.078125 -6.835938 6.234375 -6.796875 C 6.359375 -6.773438 6.46875 -6.726562 6.5625 -6.65625 L 6.734375 -6.546875 L 6.71875 -6.328125 C 6.675781 -5.992188 6.65625 -5.523438 6.65625 -4.921875 C 6.65625 -4.785156 6.65625 -4.65625 6.65625 -4.53125 C 6.65625 -4.40625 6.65625 -4.285156 6.65625 -4.171875 C 6.664062 -4.066406 6.671875 -3.960938 6.671875 -3.859375 C 6.679688 -3.765625 6.6875 -3.671875 6.6875 -3.578125 C 6.695312 -3.492188 6.707031 -3.414062 6.71875 -3.34375 L 6.75 -3.09375 L 6.5 -3 C 6.476562 -2.988281 6.453125 -2.976562 6.421875 -2.96875 C 6.398438 -2.957031 6.378906 -2.945312 6.359375 -2.9375 C 6.335938 -2.9375 6.316406 -2.929688 6.296875 -2.921875 C 6.203125 -2.921875 6.109375 -2.921875 6.015625 -2.921875 C 5.929688 -2.921875 5.84375 -2.929688 5.75 -2.953125 L 5.546875 -3 L 5.5 -3.21875 Z M 5.296875 -4.15625 "/></g></g></g><g fill="#e87a00" fill-opacity="1"><g transform="translate(115.299974, 239.869043)"><g><path d="M 0.296875 -0.6875 C 0.296875 -0.96875 0.4375 -1.222656 0.71875 -1.453125 C 0.988281 -1.671875 1.265625 -1.78125 1.546875 -1.78125 C 1.890625 -1.78125 2.171875 -1.640625 2.390625 -1.359375 C 2.597656 -1.109375 2.703125 -0.84375 2.703125 -0.5625 C 2.703125 -0.269531 2.5625 -0.0078125 2.28125 0.21875 C 2.019531 0.4375 1.738281 0.546875 1.4375 0.546875 C 1.113281 0.546875 0.835938 0.40625 0.609375 0.125 C 0.398438 -0.132812 0.296875 -0.40625 0.296875 -0.6875 Z M 0.296875 -0.6875 "/></g></g></g><g fill="#e87a00" fill-opacity="1"><g transform="translate(126.667504, 239.869043)"><g><path d="M 4.4375 0.40625 L 2.359375 0.34375 C 1.953125 0.34375 1.332031 0.363281 0.5 0.40625 L 0.203125 0.421875 L 0.15625 0.125 C 0.144531 0.0507812 0.140625 -0.0195312 0.140625 -0.09375 C 0.140625 -0.238281 0.15625 -0.375 0.1875 -0.5 L 0.265625 -0.71875 L 0.46875 -0.75 C 0.75 -0.78125 1.015625 -0.835938 1.265625 -0.921875 L 1.265625 -8.59375 L 0.484375 -8.796875 L 0.265625 -8.859375 L 0.21875 -9.078125 C 0.175781 -9.316406 0.210938 -9.539062 0.328125 -9.75 L 0.421875 -9.953125 L 0.640625 -9.953125 C 0.910156 -9.929688 1.148438 -9.914062 1.359375 -9.90625 C 1.578125 -9.894531 1.765625 -9.882812 1.921875 -9.875 C 2.078125 -9.875 2.195312 -9.875 2.28125 -9.875 L 4.109375 -9.890625 C 4.578125 -9.890625 5 -9.859375 5.375 -9.796875 C 5.757812 -9.742188 6.101562 -9.648438 6.40625 -9.515625 C 6.707031 -9.378906 6.960938 -9.210938 7.171875 -9.015625 C 7.390625 -8.816406 7.554688 -8.578125 7.671875 -8.296875 C 7.785156 -8.015625 7.84375 -7.703125 7.84375 -7.359375 C 7.84375 -6.671875 7.609375 -6.09375 7.140625 -5.625 C 6.960938 -5.457031 6.769531 -5.304688 6.5625 -5.171875 C 7.175781 -4.960938 7.640625 -4.640625 7.953125 -4.203125 C 8.273438 -3.765625 8.4375 -3.226562 8.4375 -2.59375 C 8.4375 -2.039062 8.320312 -1.554688 8.09375 -1.140625 C 7.851562 -0.734375 7.53125 -0.414062 7.125 -0.1875 C 6.738281 0.03125 6.328125 0.179688 5.890625 0.265625 C 5.742188 0.296875 5.585938 0.320312 5.421875 0.34375 C 5.265625 0.363281 5.101562 0.378906 4.9375 0.390625 C 4.78125 0.398438 4.613281 0.40625 4.4375 0.40625 Z M 3.375 -0.9375 L 4.296875 -0.890625 C 5.023438 -0.890625 5.53125 -1.03125 5.8125 -1.3125 C 6.101562 -1.601562 6.242188 -2.035156 6.234375 -2.609375 C 6.234375 -3.242188 6.082031 -3.679688 5.78125 -3.921875 C 5.445312 -4.179688 4.851562 -4.3125 4 -4.3125 L 3.375 -4.3125 Z M 3.375 -5.6875 L 3.828125 -5.6875 C 4.535156 -5.6875 5.023438 -5.816406 5.296875 -6.078125 C 5.566406 -6.328125 5.703125 -6.734375 5.703125 -7.296875 C 5.703125 -7.460938 5.6875 -7.609375 5.65625 -7.734375 C 5.625 -7.859375 5.582031 -7.957031 5.53125 -8.03125 C 5.476562 -8.113281 5.40625 -8.1875 5.3125 -8.25 C 5.175781 -8.351562 4.972656 -8.429688 4.703125 -8.484375 C 4.441406 -8.535156 4.113281 -8.5625 3.71875 -8.5625 C 3.644531 -8.5625 3.53125 -8.5625 3.375 -8.5625 Z M 3.375 -5.6875 "/></g></g></g><g fill="#e87a00" fill-opacity="1"><g transform="translate(143.69979, 239.869043)"><g><path d="M 9.109375 -8.625 L 9.109375 -3.75 C 9.109375 -3.46875 9.097656 -3.207031 9.078125 -2.96875 C 9.054688 -2.726562 9.03125 -2.5 9 -2.28125 C 8.96875 -2.070312 8.929688 -1.875 8.890625 -1.6875 C 8.722656 -1.144531 8.484375 -0.703125 8.171875 -0.359375 C 8.023438 -0.179688 7.847656 -0.0351562 7.640625 0.078125 C 7.429688 0.203125 7.207031 0.304688 6.96875 0.390625 C 6.84375 0.429688 6.707031 0.46875 6.5625 0.5 C 6.414062 0.53125 6.269531 0.554688 6.125 0.578125 C 5.988281 0.578125 5.84375 0.582031 5.6875 0.59375 C 5.539062 0.601562 5.390625 0.609375 5.234375 0.609375 C 4.554688 0.609375 3.96875 0.550781 3.46875 0.4375 C 2.957031 0.3125 2.519531 0.0820312 2.15625 -0.25 C 1.96875 -0.40625 1.800781 -0.59375 1.65625 -0.8125 C 1.519531 -1.039062 1.410156 -1.296875 1.328125 -1.578125 C 1.234375 -1.847656 1.164062 -2.148438 1.125 -2.484375 C 1.082031 -2.828125 1.0625 -3.203125 1.0625 -3.609375 L 1.0625 -8.59375 L 0.28125 -8.796875 L 0.0625 -8.859375 L 0.015625 -9.078125 C -0.015625 -9.316406 0.0195312 -9.539062 0.125 -9.75 L 0.21875 -9.953125 L 0.4375 -9.953125 C 0.84375 -9.921875 1.179688 -9.898438 1.453125 -9.890625 C 1.734375 -9.878906 1.945312 -9.875 2.09375 -9.875 C 2.488281 -9.875 3.101562 -9.898438 3.9375 -9.953125 L 4.234375 -9.953125 L 4.296875 -9.65625 C 4.304688 -9.582031 4.3125 -9.507812 4.3125 -9.4375 C 4.3125 -9.363281 4.304688 -9.289062 4.296875 -9.21875 C 4.285156 -9.15625 4.269531 -9.09375 4.25 -9.03125 L 4.1875 -8.8125 L 3.96875 -8.78125 C 3.894531 -8.78125 3.816406 -8.769531 3.734375 -8.75 C 3.648438 -8.738281 3.578125 -8.722656 3.515625 -8.703125 C 3.453125 -8.691406 3.390625 -8.679688 3.328125 -8.671875 C 3.273438 -8.660156 3.222656 -8.644531 3.171875 -8.625 L 3.171875 -3.203125 C 3.171875 -2.347656 3.363281 -1.722656 3.75 -1.328125 C 4.132812 -0.941406 4.742188 -0.75 5.578125 -0.75 C 5.703125 -0.75 5.816406 -0.753906 5.921875 -0.765625 C 6.085938 -0.785156 6.238281 -0.816406 6.375 -0.859375 C 6.59375 -0.921875 6.773438 -1.019531 6.921875 -1.15625 C 6.972656 -1.195312 7.019531 -1.238281 7.0625 -1.28125 C 7.113281 -1.332031 7.15625 -1.378906 7.1875 -1.421875 C 7.21875 -1.472656 7.242188 -1.519531 7.265625 -1.5625 C 7.359375 -1.726562 7.425781 -1.890625 7.46875 -2.046875 C 7.519531 -2.210938 7.566406 -2.4375 7.609375 -2.71875 C 7.640625 -3 7.660156 -3.234375 7.671875 -3.421875 C 7.671875 -3.515625 7.671875 -3.617188 7.671875 -3.734375 C 7.671875 -3.859375 7.671875 -4 7.671875 -4.15625 L 7.671875 -8.59375 L 6.875 -8.796875 L 6.671875 -8.859375 L 6.625 -9.078125 C 6.613281 -9.160156 6.609375 -9.242188 6.609375 -9.328125 C 6.617188 -9.472656 6.660156 -9.613281 6.734375 -9.75 L 6.828125 -9.953125 L 7.0625 -9.953125 C 7.269531 -9.929688 7.457031 -9.914062 7.625 -9.90625 C 7.800781 -9.894531 7.953125 -9.882812 8.078125 -9.875 C 8.210938 -9.875 8.328125 -9.875 8.421875 -9.875 C 8.722656 -9.875 9.203125 -9.898438 9.859375 -9.953125 L 10.171875 -9.96875 L 10.21875 -9.65625 C 10.226562 -9.570312 10.234375 -9.492188 10.234375 -9.421875 C 10.234375 -9.359375 10.226562 -9.289062 10.21875 -9.21875 C 10.207031 -9.144531 10.195312 -9.078125 10.1875 -9.015625 L 10.109375 -8.8125 L 9.890625 -8.78125 C 9.554688 -8.738281 9.296875 -8.6875 9.109375 -8.625 Z M 9.109375 -8.625 "/></g></g></g><g fill="#e87a00" fill-opacity="1"><g transform="translate(162.216364, 239.869043)"><g><path d="M 5.609375 -4.28125 L 5.609375 -0.953125 L 6.53125 -0.734375 L 6.75 -0.6875 L 6.78125 -0.46875 C 6.789062 -0.382812 6.796875 -0.304688 6.796875 -0.234375 C 6.785156 -0.0664062 6.742188 0.0820312 6.671875 0.21875 L 6.578125 0.421875 L 6.359375 0.40625 C 5.546875 0.363281 4.953125 0.34375 4.578125 0.34375 C 4.390625 0.34375 4.140625 0.347656 3.828125 0.359375 C 3.515625 0.367188 3.148438 0.382812 2.734375 0.40625 L 2.4375 0.421875 L 2.390625 0.140625 C 2.328125 -0.0976562 2.335938 -0.320312 2.421875 -0.53125 L 2.5 -0.71875 L 2.703125 -0.75 C 3.035156 -0.78125 3.296875 -0.832031 3.484375 -0.90625 L 3.484375 -4 L 0.6875 -8.5625 L -0.234375 -8.796875 L -0.453125 -8.859375 L -0.484375 -9.078125 C -0.492188 -9.160156 -0.5 -9.238281 -0.5 -9.3125 C -0.488281 -9.46875 -0.445312 -9.613281 -0.375 -9.75 L -0.28125 -9.953125 L -0.0625 -9.953125 C 0.34375 -9.921875 0.691406 -9.898438 0.984375 -9.890625 C 1.285156 -9.878906 1.523438 -9.875 1.703125 -9.875 C 2.117188 -9.875 2.75 -9.898438 3.59375 -9.953125 L 3.90625 -9.953125 L 3.953125 -9.65625 C 3.960938 -9.582031 3.96875 -9.507812 3.96875 -9.4375 C 3.96875 -9.363281 3.960938 -9.289062 3.953125 -9.21875 C 3.941406 -9.15625 3.925781 -9.09375 3.90625 -9.03125 L 3.84375 -8.8125 L 3.625 -8.78125 C 3.375 -8.757812 3.160156 -8.722656 2.984375 -8.671875 L 4.75 -5.609375 L 6.53125 -8.640625 L 5.921875 -8.796875 L 5.703125 -8.859375 L 5.65625 -9.078125 C 5.644531 -9.128906 5.640625 -9.175781 5.640625 -9.21875 C 5.640625 -9.269531 5.644531 -9.320312 5.65625 -9.375 C 5.65625 -9.40625 5.65625 -9.4375 5.65625 -9.46875 C 5.664062 -9.507812 5.675781 -9.546875 5.6875 -9.578125 C 5.695312 -9.609375 5.707031 -9.640625 5.71875 -9.671875 C 5.726562 -9.703125 5.742188 -9.726562 5.765625 -9.75 L 5.859375 -9.953125 L 6.09375 -9.953125 C 6.40625 -9.921875 6.6875 -9.898438 6.9375 -9.890625 C 7.1875 -9.878906 7.410156 -9.875 7.609375 -9.875 C 7.898438 -9.875 8.375 -9.898438 9.03125 -9.953125 L 9.34375 -9.96875 L 9.40625 -9.65625 C 9.425781 -9.550781 9.429688 -9.441406 9.421875 -9.328125 C 9.410156 -9.222656 9.390625 -9.125 9.359375 -9.03125 L 9.296875 -8.8125 L 9.078125 -8.78125 C 8.640625 -8.726562 8.320312 -8.660156 8.125 -8.578125 Z M 5.609375 -4.28125 "/></g></g></g><g fill="#e87a00" fill-opacity="1"><g transform="translate(179.507378, 239.869043)"><g><path d="M 0.296875 -0.6875 C 0.296875 -0.96875 0.4375 -1.222656 0.71875 -1.453125 C 0.988281 -1.671875 1.265625 -1.78125 1.546875 -1.78125 C 1.890625 -1.78125 2.171875 -1.640625 2.390625 -1.359375 C 2.597656 -1.109375 2.703125 -0.84375 2.703125 -0.5625 C 2.703125 -0.269531 2.5625 -0.0078125 2.28125 0.21875 C 2.019531 0.4375 1.738281 0.546875 1.4375 0.546875 C 1.113281 0.546875 0.835938 0.40625 0.609375 0.125 C 0.398438 -0.132812 0.296875 -0.40625 0.296875 -0.6875 Z M 0.296875 -0.6875 "/></g></g></g><g fill="#e87a00" fill-opacity="1"><g transform="translate(190.874909, 239.869043)"><g><path d="M 9.375 -8.609375 L 9.375 -0.9375 L 10.171875 -0.734375 L 10.375 -0.6875 L 10.421875 -0.46875 C 10.460938 -0.21875 10.425781 0.0078125 10.3125 0.21875 L 10.21875 0.421875 L 10 0.40625 C 9.1875 0.363281 8.640625 0.34375 8.359375 0.34375 C 8.222656 0.34375 8.0625 0.34375 7.875 0.34375 C 7.695312 0.351562 7.492188 0.359375 7.265625 0.359375 C 7.035156 0.367188 6.78125 0.382812 6.5 0.40625 L 6.203125 0.421875 L 6.140625 0.125 C 6.128906 0.0507812 6.125 -0.015625 6.125 -0.078125 C 6.125 -0.234375 6.144531 -0.375 6.1875 -0.5 L 6.25 -0.71875 L 6.46875 -0.75 C 6.75 -0.78125 7.015625 -0.835938 7.265625 -0.921875 L 7.265625 -4.296875 L 3.375 -4.296875 L 3.375 -0.9375 L 4.171875 -0.734375 L 4.390625 -0.6875 L 4.421875 -0.46875 C 4.460938 -0.21875 4.425781 0.0078125 4.3125 0.21875 L 4.21875 0.421875 L 4 0.40625 C 3.1875 0.363281 2.640625 0.34375 2.359375 0.34375 C 2.171875 0.34375 1.914062 0.347656 1.59375 0.359375 C 1.28125 0.367188 0.914062 0.382812 0.5 0.40625 L 0.203125 0.421875 L 0.15625 0.125 C 0.113281 -0.101562 0.125 -0.3125 0.1875 -0.5 L 0.265625 -0.703125 L 0.46875 -0.75 C 0.789062 -0.800781 1.054688 -0.859375 1.265625 -0.921875 L 1.265625 -8.59375 L 0.484375 -8.796875 L 0.265625 -8.859375 L 0.21875 -9.078125 C 0.175781 -9.316406 0.210938 -9.539062 0.328125 -9.75 L 0.421875 -9.953125 L 0.640625 -9.953125 C 1.046875 -9.921875 1.382812 -9.898438 1.65625 -9.890625 C 1.9375 -9.878906 2.144531 -9.875 2.28125 -9.875 C 2.6875 -9.875 3.304688 -9.898438 4.140625 -9.953125 L 4.421875 -9.953125 L 4.484375 -9.671875 C 4.503906 -9.597656 4.515625 -9.519531 4.515625 -9.4375 C 4.523438 -9.363281 4.519531 -9.289062 4.5 -9.21875 C 4.488281 -9.144531 4.46875 -9.070312 4.4375 -9 L 4.375 -8.828125 L 4.1875 -8.78125 C 4.03125 -8.757812 3.878906 -8.734375 3.734375 -8.703125 C 3.597656 -8.679688 3.476562 -8.648438 3.375 -8.609375 L 3.375 -5.71875 L 7.265625 -5.71875 L 7.265625 -8.59375 L 6.46875 -8.796875 L 6.25 -8.859375 L 6.21875 -9.078125 C 6.175781 -9.316406 6.210938 -9.539062 6.328125 -9.75 L 6.421875 -9.953125 L 6.640625 -9.953125 C 7.046875 -9.921875 7.382812 -9.898438 7.65625 -9.890625 C 7.9375 -9.878906 8.144531 -9.875 8.28125 -9.875 C 8.476562 -9.875 8.734375 -9.878906 9.046875 -9.890625 C 9.359375 -9.898438 9.722656 -9.921875 10.140625 -9.953125 L 10.421875 -9.953125 L 10.484375 -9.671875 C 10.492188 -9.597656 10.5 -9.519531 10.5 -9.4375 C 10.507812 -9.363281 10.507812 -9.289062 10.5 -9.21875 C 10.488281 -9.144531 10.46875 -9.070312 10.4375 -9 L 10.375 -8.828125 L 10.171875 -8.78125 C 10.023438 -8.757812 9.878906 -8.734375 9.734375 -8.703125 C 9.597656 -8.679688 9.476562 -8.648438 9.375 -8.609375 Z M 9.375 -8.609375 "/></g></g></g><g fill="#e87a00" fill-opacity="1"><g transform="translate(209.854464, 239.869043)"><g><path d="M 0.265625 -4.78125 C 0.265625 -6.382812 0.71875 -7.675781 1.625 -8.65625 C 2.53125 -9.65625 3.691406 -10.15625 5.109375 -10.15625 C 6.554688 -10.15625 7.738281 -9.648438 8.65625 -8.640625 C 9.550781 -7.648438 10 -6.363281 10 -4.78125 C 10 -3.175781 9.554688 -1.878906 8.671875 -0.890625 C 7.753906 0.109375 6.566406 0.609375 5.109375 0.609375 C 3.640625 0.609375 2.457031 0.109375 1.5625 -0.890625 C 0.695312 -1.890625 0.265625 -3.1875 0.265625 -4.78125 Z M 7.75 -4.875 C 7.75 -5.226562 7.722656 -5.566406 7.671875 -5.890625 C 7.617188 -6.210938 7.539062 -6.523438 7.4375 -6.828125 C 7.226562 -7.421875 6.910156 -7.90625 6.484375 -8.28125 C 6.078125 -8.65625 5.601562 -8.84375 5.0625 -8.84375 C 4.84375 -8.84375 4.640625 -8.8125 4.453125 -8.75 C 4.265625 -8.695312 4.085938 -8.625 3.921875 -8.53125 C 3.585938 -8.3125 3.328125 -8.007812 3.140625 -7.625 C 3.097656 -7.5625 3.0625 -7.492188 3.03125 -7.421875 C 3 -7.347656 2.96875 -7.273438 2.9375 -7.203125 C 2.914062 -7.140625 2.890625 -7.066406 2.859375 -6.984375 C 2.835938 -6.910156 2.8125 -6.835938 2.78125 -6.765625 C 2.757812 -6.691406 2.738281 -6.613281 2.71875 -6.53125 C 2.695312 -6.445312 2.675781 -6.363281 2.65625 -6.28125 C 2.550781 -5.78125 2.5 -5.238281 2.5 -4.65625 C 2.5 -3.5 2.757812 -2.539062 3.28125 -1.78125 C 3.769531 -1.050781 4.429688 -0.6875 5.265625 -0.6875 C 6.046875 -0.6875 6.648438 -1.0625 7.078125 -1.8125 C 7.523438 -2.625 7.75 -3.644531 7.75 -4.875 Z M 7.75 -4.875 "/></g></g></g><g fill="#e87a00" fill-opacity="1"><g transform="translate(228.479974, 239.869043)"><g><path d="M 9.109375 -8.625 L 9.109375 -3.75 C 9.109375 -3.46875 9.097656 -3.207031 9.078125 -2.96875 C 9.054688 -2.726562 9.03125 -2.5 9 -2.28125 C 8.96875 -2.070312 8.929688 -1.875 8.890625 -1.6875 C 8.722656 -1.144531 8.484375 -0.703125 8.171875 -0.359375 C 8.023438 -0.179688 7.847656 -0.0351562 7.640625 0.078125 C 7.429688 0.203125 7.207031 0.304688 6.96875 0.390625 C 6.84375 0.429688 6.707031 0.46875 6.5625 0.5 C 6.414062 0.53125 6.269531 0.554688 6.125 0.578125 C 5.988281 0.578125 5.84375 0.582031 5.6875 0.59375 C 5.539062 0.601562 5.390625 0.609375 5.234375 0.609375 C 4.554688 0.609375 3.96875 0.550781 3.46875 0.4375 C 2.957031 0.3125 2.519531 0.0820312 2.15625 -0.25 C 1.96875 -0.40625 1.800781 -0.59375 1.65625 -0.8125 C 1.519531 -1.039062 1.410156 -1.296875 1.328125 -1.578125 C 1.234375 -1.847656 1.164062 -2.148438 1.125 -2.484375 C 1.082031 -2.828125 1.0625 -3.203125 1.0625 -3.609375 L 1.0625 -8.59375 L 0.28125 -8.796875 L 0.0625 -8.859375 L 0.015625 -9.078125 C -0.015625 -9.316406 0.0195312 -9.539062 0.125 -9.75 L 0.21875 -9.953125 L 0.4375 -9.953125 C 0.84375 -9.921875 1.179688 -9.898438 1.453125 -9.890625 C 1.734375 -9.878906 1.945312 -9.875 2.09375 -9.875 C 2.488281 -9.875 3.101562 -9.898438 3.9375 -9.953125 L 4.234375 -9.953125 L 4.296875 -9.65625 C 4.304688 -9.582031 4.3125 -9.507812 4.3125 -9.4375 C 4.3125 -9.363281 4.304688 -9.289062 4.296875 -9.21875 C 4.285156 -9.15625 4.269531 -9.09375 4.25 -9.03125 L 4.1875 -8.8125 L 3.96875 -8.78125 C 3.894531 -8.78125 3.816406 -8.769531 3.734375 -8.75 C 3.648438 -8.738281 3.578125 -8.722656 3.515625 -8.703125 C 3.453125 -8.691406 3.390625 -8.679688 3.328125 -8.671875 C 3.273438 -8.660156 3.222656 -8.644531 3.171875 -8.625 L 3.171875 -3.203125 C 3.171875 -2.347656 3.363281 -1.722656 3.75 -1.328125 C 4.132812 -0.941406 4.742188 -0.75 5.578125 -0.75 C 5.703125 -0.75 5.816406 -0.753906 5.921875 -0.765625 C 6.085938 -0.785156 6.238281 -0.816406 6.375 -0.859375 C 6.59375 -0.921875 6.773438 -1.019531 6.921875 -1.15625 C 6.972656 -1.195312 7.019531 -1.238281 7.0625 -1.28125 C 7.113281 -1.332031 7.15625 -1.378906 7.1875 -1.421875 C 7.21875 -1.472656 7.242188 -1.519531 7.265625 -1.5625 C 7.359375 -1.726562 7.425781 -1.890625 7.46875 -2.046875 C 7.519531 -2.210938 7.566406 -2.4375 7.609375 -2.71875 C 7.640625 -3 7.660156 -3.234375 7.671875 -3.421875 C 7.671875 -3.515625 7.671875 -3.617188 7.671875 -3.734375 C 7.671875 -3.859375 7.671875 -4 7.671875 -4.15625 L 7.671875 -8.59375 L 6.875 -8.796875 L 6.671875 -8.859375 L 6.625 -9.078125 C 6.613281 -9.160156 6.609375 -9.242188 6.609375 -9.328125 C 6.617188 -9.472656 6.660156 -9.613281 6.734375 -9.75 L 6.828125 -9.953125 L 7.0625 -9.953125 C 7.269531 -9.929688 7.457031 -9.914062 7.625 -9.90625 C 7.800781 -9.894531 7.953125 -9.882812 8.078125 -9.875 C 8.210938 -9.875 8.328125 -9.875 8.421875 -9.875 C 8.722656 -9.875 9.203125 -9.898438 9.859375 -9.953125 L 10.171875 -9.96875 L 10.21875 -9.65625 C 10.226562 -9.570312 10.234375 -9.492188 10.234375 -9.421875 C 10.234375 -9.359375 10.226562 -9.289062 10.21875 -9.21875 C 10.207031 -9.144531 10.195312 -9.078125 10.1875 -9.015625 L 10.109375 -8.8125 L 9.890625 -8.78125 C 9.554688 -8.738281 9.296875 -8.6875 9.109375 -8.625 Z M 9.109375 -8.625 "/></g></g></g><g fill="#e87a00" fill-opacity="1"><g transform="translate(246.996548, 239.869043)"><g><path d="M 3.515625 0.59375 C 2.878906 0.59375 2.3125 0.550781 1.8125 0.46875 C 1.320312 0.394531 0.890625 0.269531 0.515625 0.09375 L 0.328125 0 L 0.328125 -0.21875 C 0.328125 -1.0625 0.445312 -1.882812 0.6875 -2.6875 L 0.78125 -2.921875 L 1.015625 -2.921875 C 1.023438 -2.921875 1.039062 -2.921875 1.0625 -2.921875 C 1.101562 -2.929688 1.148438 -2.9375 1.203125 -2.9375 C 1.253906 -2.9375 1.300781 -2.929688 1.34375 -2.921875 C 1.394531 -2.921875 1.441406 -2.914062 1.484375 -2.90625 C 1.535156 -2.90625 1.582031 -2.894531 1.625 -2.875 C 1.675781 -2.863281 1.71875 -2.847656 1.75 -2.828125 L 1.9375 -2.75 L 1.96875 -2.5625 L 2.15625 -0.984375 C 2.601562 -0.890625 2.988281 -0.84375 3.3125 -0.84375 C 3.457031 -0.84375 3.601562 -0.851562 3.75 -0.875 C 3.90625 -0.894531 4.0625 -0.914062 4.21875 -0.9375 C 4.488281 -1 4.734375 -1.125 4.953125 -1.3125 C 5.117188 -1.46875 5.203125 -1.691406 5.203125 -1.984375 C 5.203125 -2.097656 5.195312 -2.195312 5.1875 -2.28125 C 5.175781 -2.375 5.160156 -2.453125 5.140625 -2.515625 C 5.128906 -2.578125 5.109375 -2.640625 5.078125 -2.703125 C 4.992188 -2.859375 4.789062 -3.050781 4.46875 -3.28125 C 4.113281 -3.53125 3.546875 -3.820312 2.765625 -4.15625 C 2.328125 -4.34375 1.957031 -4.539062 1.65625 -4.75 C 1.351562 -4.957031 1.101562 -5.179688 0.90625 -5.421875 C 0.53125 -5.890625 0.351562 -6.515625 0.375 -7.296875 C 0.375 -7.753906 0.472656 -8.160156 0.671875 -8.515625 C 0.867188 -8.878906 1.160156 -9.179688 1.546875 -9.421875 C 2.203125 -9.835938 3.015625 -10.0625 3.984375 -10.09375 C 4.054688 -10.09375 4.128906 -10.09375 4.203125 -10.09375 C 5.097656 -10.09375 5.914062 -9.945312 6.65625 -9.65625 L 6.859375 -9.578125 L 6.859375 -9.359375 C 6.878906 -8.984375 6.847656 -8.59375 6.765625 -8.1875 C 6.691406 -7.789062 6.578125 -7.367188 6.421875 -6.921875 L 6.359375 -6.765625 L 6.1875 -6.71875 C 6.125 -6.695312 6.035156 -6.6875 5.921875 -6.6875 C 5.722656 -6.6875 5.539062 -6.722656 5.375 -6.796875 L 5.171875 -6.875 L 5.15625 -7.078125 L 5.046875 -8.65625 C 4.878906 -8.6875 4.722656 -8.710938 4.578125 -8.734375 C 4.429688 -8.753906 4.28125 -8.765625 4.125 -8.765625 C 3.59375 -8.765625 3.15625 -8.648438 2.8125 -8.421875 C 2.507812 -8.234375 2.351562 -7.9375 2.34375 -7.53125 C 2.34375 -7.363281 2.363281 -7.210938 2.40625 -7.078125 C 2.445312 -6.953125 2.515625 -6.84375 2.609375 -6.75 C 2.828125 -6.519531 3.320312 -6.234375 4.09375 -5.890625 C 4.382812 -5.753906 4.644531 -5.628906 4.875 -5.515625 C 5.113281 -5.410156 5.316406 -5.304688 5.484375 -5.203125 C 5.609375 -5.148438 5.722656 -5.085938 5.828125 -5.015625 C 5.941406 -4.941406 6.050781 -4.863281 6.15625 -4.78125 C 6.257812 -4.707031 6.351562 -4.625 6.4375 -4.53125 C 6.75 -4.257812 6.972656 -3.941406 7.109375 -3.578125 C 7.140625 -3.503906 7.164062 -3.429688 7.1875 -3.359375 C 7.207031 -3.285156 7.226562 -3.207031 7.25 -3.125 C 7.269531 -3.050781 7.28125 -2.972656 7.28125 -2.890625 C 7.289062 -2.804688 7.296875 -2.71875 7.296875 -2.625 C 7.304688 -2.539062 7.3125 -2.457031 7.3125 -2.375 C 7.300781 -1.394531 6.90625 -0.648438 6.125 -0.140625 C 5.382812 0.347656 4.515625 0.59375 3.515625 0.59375 Z M 3.515625 0.59375 "/></g></g></g><g fill="#e87a00" fill-opacity="1"><g transform="translate(262.789668, 239.869043)"><g><path d="M 5.296875 -4.15625 L 3.375 -4.15625 L 3.375 -0.953125 L 6.703125 -0.953125 L 6.9375 -2.484375 L 6.96875 -2.71875 L 7.203125 -2.765625 C 7.328125 -2.785156 7.445312 -2.789062 7.5625 -2.78125 C 7.675781 -2.769531 7.789062 -2.742188 7.90625 -2.703125 L 8.046875 -2.625 L 8.078125 -2.46875 C 8.210938 -1.90625 8.269531 -1.082031 8.25 0 L 8.25 0.34375 L 2.359375 0.34375 L 0.5625 0.40625 L 0.265625 0.421875 L 0.203125 0.125 C 0.171875 -0.101562 0.1875 -0.3125 0.25 -0.5 L 0.3125 -0.703125 L 0.5 -0.75 C 0.8125 -0.800781 1.066406 -0.859375 1.265625 -0.921875 L 1.265625 -8.59375 L 0.484375 -8.796875 L 0.265625 -8.859375 L 0.21875 -9.078125 C 0.175781 -9.316406 0.210938 -9.539062 0.328125 -9.75 L 0.421875 -9.953125 L 0.640625 -9.953125 C 1.046875 -9.921875 1.382812 -9.898438 1.65625 -9.890625 C 1.9375 -9.878906 2.144531 -9.875 2.28125 -9.875 L 7.875 -9.875 L 7.875 -9.53125 C 7.894531 -8.59375 7.84375 -7.78125 7.71875 -7.09375 L 7.6875 -6.90625 L 7.5 -6.84375 C 7.394531 -6.789062 7.285156 -6.765625 7.171875 -6.765625 C 7.066406 -6.765625 6.957031 -6.765625 6.84375 -6.765625 L 6.609375 -6.8125 L 6.546875 -7.046875 L 6.25 -8.578125 L 3.375 -8.578125 L 3.375 -5.59375 L 5.296875 -5.59375 L 5.5 -6.515625 L 5.546875 -6.71875 L 5.734375 -6.765625 C 5.910156 -6.828125 6.078125 -6.835938 6.234375 -6.796875 C 6.359375 -6.773438 6.46875 -6.726562 6.5625 -6.65625 L 6.734375 -6.546875 L 6.71875 -6.328125 C 6.675781 -5.992188 6.65625 -5.523438 6.65625 -4.921875 C 6.65625 -4.785156 6.65625 -4.65625 6.65625 -4.53125 C 6.65625 -4.40625 6.65625 -4.285156 6.65625 -4.171875 C 6.664062 -4.066406 6.671875 -3.960938 6.671875 -3.859375 C 6.679688 -3.765625 6.6875 -3.671875 6.6875 -3.578125 C 6.695312 -3.492188 6.707031 -3.414062 6.71875 -3.34375 L 6.75 -3.09375 L 6.5 -3 C 6.476562 -2.988281 6.453125 -2.976562 6.421875 -2.96875 C 6.398438 -2.957031 6.378906 -2.945312 6.359375 -2.9375 C 6.335938 -2.9375 6.316406 -2.929688 6.296875 -2.921875 C 6.203125 -2.921875 6.109375 -2.921875 6.015625 -2.921875 C 5.929688 -2.921875 5.84375 -2.929688 5.75 -2.953125 L 5.546875 -3 L 5.5 -3.21875 Z M 5.296875 -4.15625 "/></g></g></g><g fill="#e87a00" fill-opacity="1"><g transform="translate(279.672163, 239.869043)"><g><path d="M 3.515625 0.59375 C 2.878906 0.59375 2.3125 0.550781 1.8125 0.46875 C 1.320312 0.394531 0.890625 0.269531 0.515625 0.09375 L 0.328125 0 L 0.328125 -0.21875 C 0.328125 -1.0625 0.445312 -1.882812 0.6875 -2.6875 L 0.78125 -2.921875 L 1.015625 -2.921875 C 1.023438 -2.921875 1.039062 -2.921875 1.0625 -2.921875 C 1.101562 -2.929688 1.148438 -2.9375 1.203125 -2.9375 C 1.253906 -2.9375 1.300781 -2.929688 1.34375 -2.921875 C 1.394531 -2.921875 1.441406 -2.914062 1.484375 -2.90625 C 1.535156 -2.90625 1.582031 -2.894531 1.625 -2.875 C 1.675781 -2.863281 1.71875 -2.847656 1.75 -2.828125 L 1.9375 -2.75 L 1.96875 -2.5625 L 2.15625 -0.984375 C 2.601562 -0.890625 2.988281 -0.84375 3.3125 -0.84375 C 3.457031 -0.84375 3.601562 -0.851562 3.75 -0.875 C 3.90625 -0.894531 4.0625 -0.914062 4.21875 -0.9375 C 4.488281 -1 4.734375 -1.125 4.953125 -1.3125 C 5.117188 -1.46875 5.203125 -1.691406 5.203125 -1.984375 C 5.203125 -2.097656 5.195312 -2.195312 5.1875 -2.28125 C 5.175781 -2.375 5.160156 -2.453125 5.140625 -2.515625 C 5.128906 -2.578125 5.109375 -2.640625 5.078125 -2.703125 C 4.992188 -2.859375 4.789062 -3.050781 4.46875 -3.28125 C 4.113281 -3.53125 3.546875 -3.820312 2.765625 -4.15625 C 2.328125 -4.34375 1.957031 -4.539062 1.65625 -4.75 C 1.351562 -4.957031 1.101562 -5.179688 0.90625 -5.421875 C 0.53125 -5.890625 0.351562 -6.515625 0.375 -7.296875 C 0.375 -7.753906 0.472656 -8.160156 0.671875 -8.515625 C 0.867188 -8.878906 1.160156 -9.179688 1.546875 -9.421875 C 2.203125 -9.835938 3.015625 -10.0625 3.984375 -10.09375 C 4.054688 -10.09375 4.128906 -10.09375 4.203125 -10.09375 C 5.097656 -10.09375 5.914062 -9.945312 6.65625 -9.65625 L 6.859375 -9.578125 L 6.859375 -9.359375 C 6.878906 -8.984375 6.847656 -8.59375 6.765625 -8.1875 C 6.691406 -7.789062 6.578125 -7.367188 6.421875 -6.921875 L 6.359375 -6.765625 L 6.1875 -6.71875 C 6.125 -6.695312 6.035156 -6.6875 5.921875 -6.6875 C 5.722656 -6.6875 5.539062 -6.722656 5.375 -6.796875 L 5.171875 -6.875 L 5.15625 -7.078125 L 5.046875 -8.65625 C 4.878906 -8.6875 4.722656 -8.710938 4.578125 -8.734375 C 4.429688 -8.753906 4.28125 -8.765625 4.125 -8.765625 C 3.59375 -8.765625 3.15625 -8.648438 2.8125 -8.421875 C 2.507812 -8.234375 2.351562 -7.9375 2.34375 -7.53125 C 2.34375 -7.363281 2.363281 -7.210938 2.40625 -7.078125 C 2.445312 -6.953125 2.515625 -6.84375 2.609375 -6.75 C 2.828125 -6.519531 3.320312 -6.234375 4.09375 -5.890625 C 4.382812 -5.753906 4.644531 -5.628906 4.875 -5.515625 C 5.113281 -5.410156 5.316406 -5.304688 5.484375 -5.203125 C 5.609375 -5.148438 5.722656 -5.085938 5.828125 -5.015625 C 5.941406 -4.941406 6.050781 -4.863281 6.15625 -4.78125 C 6.257812 -4.707031 6.351562 -4.625 6.4375 -4.53125 C 6.75 -4.257812 6.972656 -3.941406 7.109375 -3.578125 C 7.140625 -3.503906 7.164062 -3.429688 7.1875 -3.359375 C 7.207031 -3.285156 7.226562 -3.207031 7.25 -3.125 C 7.269531 -3.050781 7.28125 -2.972656 7.28125 -2.890625 C 7.289062 -2.804688 7.296875 -2.71875 7.296875 -2.625 C 7.304688 -2.539062 7.3125 -2.457031 7.3125 -2.375 C 7.300781 -1.394531 6.90625 -0.648438 6.125 -0.140625 C 5.382812 0.347656 4.515625 0.59375 3.515625 0.59375 Z M 3.515625 0.59375 "/></g></g></g><g fill="#e87a00" fill-opacity="1"><g transform="translate(295.465283, 239.869043)"><g><path d="M 0.296875 -0.6875 C 0.296875 -0.96875 0.4375 -1.222656 0.71875 -1.453125 C 0.988281 -1.671875 1.265625 -1.78125 1.546875 -1.78125 C 1.890625 -1.78125 2.171875 -1.640625 2.390625 -1.359375 C 2.597656 -1.109375 2.703125 -0.84375 2.703125 -0.5625 C 2.703125 -0.269531 2.5625 -0.0078125 2.28125 0.21875 C 2.019531 0.4375 1.738281 0.546875 1.4375 0.546875 C 1.113281 0.546875 0.835938 0.40625 0.609375 0.125 C 0.398438 -0.132812 0.296875 -0.40625 0.296875 -0.6875 Z M 0.296875 -0.6875 "/></g></g></g><path fill="#045174" d="M 145.367188 184.160156 L 187.417969 141.496094 L 229.496094 184.160156 L 220.886719 184.160156 L 220.886719 179.875 L 187.417969 145.945312 L 154.222656 179.628906 L 154.222656 184.160156 Z M 145.367188 184.160156 " fill-opacity="1" fill-rule="evenodd"/><g clip-path="url(#4f6799e3d3)"><path fill="#e87a00" d="M 106.464844 154.699219 L 132.726562 181.347656 L 140.148438 181.347656 L 187.496094 133.304688 L 234.84375 181.347656 L 242.265625 181.347656 L 268.527344 154.699219 L 297.558594 184.160156 L 292.519531 184.160156 L 268.53125 159.816406 L 244.542969 184.160156 C 240.550781 184.160156 236.566406 184.160156 232.574219 184.160156 L 187.496094 138.421875 L 142.421875 184.164062 C 138.429688 184.164062 134.445312 184.164062 130.453125 184.164062 L 106.464844 159.824219 L 82.476562 184.164062 L 77.429688 184.164062 Z M 106.464844 154.699219 " fill-opacity="1" fill-rule="evenodd"/></g><path fill="#e87a00" d="M 131.890625 155.328125 L 148.128906 138.929688 L 164 154.949219 L 162.347656 156.621094 L 148.128906 142.285156 L 135.003906 155.535156 Z M 131.890625 155.328125 " fill-opacity="1" fill-rule="evenodd"/><path fill="#045174" d="M 106.425781 161.121094 L 128.855469 184.160156 L 125.589844 184.160156 L 106.425781 164.367188 L 86.898438 184.160156 L 83.703125 184.160156 Z M 106.425781 161.121094 " fill-opacity="1" fill-rule="evenodd"/><path fill="#e87a00" d="M 108.78125 154.847656 L 160.78125 158.203125 L 139.503906 179.796875 L 133.371094 179.796875 Z M 108.78125 154.847656 " fill-opacity="1" fill-rule="evenodd"/><path fill="#e87a00" d="M 149.414062 139.125 L 175.683594 143.09375 L 164.539062 154.394531 Z M 149.414062 139.125 " fill-opacity="1" fill-rule="evenodd"/><path fill="#af5b00" d="M 106.515625 181.507812 L 103.269531 181.507812 L 103.269531 178.261719 L 106.515625 178.261719 Z M 110.910156 178.261719 L 110.910156 181.507812 L 107.664062 181.507812 L 107.664062 178.261719 Z M 107.660156 173.867188 L 110.902344 173.867188 L 110.902344 177.113281 L 107.660156 177.113281 Z M 103.269531 173.867188 L 106.515625 173.867188 L 106.515625 177.113281 L 103.269531 177.113281 Z M 103.269531 173.867188 " fill-opacity="1" fill-rule="evenodd"/><path fill="#045174" d="M 148.628906 154.59375 L 146.757812 154.59375 L 146.757812 152.726562 L 148.628906 152.726562 Z M 151.152344 152.730469 L 151.152344 154.601562 L 149.285156 154.601562 L 149.285156 152.730469 Z M 149.285156 150.207031 L 151.152344 150.207031 L 151.152344 152.074219 L 149.285156 152.074219 Z M 146.757812 150.207031 L 148.628906 150.207031 L 148.628906 152.074219 L 146.757812 152.074219 Z M 146.757812 150.207031 " fill-opacity="1" fill-rule="evenodd"/><path fill="#045174" d="M 85.726562 184.160156 L 88.949219 184.160156 L 88.949219 181.257812 Z M 85.726562 184.160156 " fill-opacity="1" fill-rule="evenodd"/><path fill="#045174" d="M 126.757812 184.160156 L 123.535156 184.160156 L 123.535156 181.257812 Z M 126.757812 184.160156 " fill-opacity="1" fill-rule="evenodd"/><path fill="#e87a00" d="M 243.09375 155.328125 L 226.859375 138.929688 L 210.992188 154.949219 L 212.644531 156.621094 L 226.859375 142.285156 L 239.984375 155.535156 Z M 243.09375 155.328125 " fill-opacity="1" fill-rule="evenodd"/><path fill="#045174" d="M 268.5625 161.121094 L 246.132812 184.160156 L 249.394531 184.160156 L 268.5625 164.367188 L 288.09375 184.160156 L 291.285156 184.160156 Z M 268.5625 161.121094 " fill-opacity="1" fill-rule="evenodd"/><path fill="#e87a00" d="M 266.203125 154.847656 L 214.207031 158.203125 L 235.488281 179.796875 L 241.617188 179.796875 Z M 266.203125 154.847656 " fill-opacity="1" fill-rule="evenodd"/><path fill="#e87a00" d="M 225.578125 139.125 L 199.308594 143.09375 L 210.449219 154.394531 Z M 225.578125 139.125 " fill-opacity="1" fill-rule="evenodd"/><path fill="#045174" d="M 268.476562 181.507812 L 271.71875 181.507812 L 271.71875 178.261719 L 268.476562 178.261719 Z M 264.082031 178.261719 L 264.082031 181.507812 L 267.324219 181.507812 L 267.324219 178.261719 Z M 267.328125 173.867188 L 264.082031 173.867188 L 264.082031 177.113281 L 267.328125 177.113281 Z M 271.71875 173.867188 L 268.476562 173.867188 L 268.476562 177.113281 L 271.71875 177.113281 Z M 271.71875 173.867188 " fill-opacity="1" fill-rule="evenodd"/><path fill="#045174" d="M 226.363281 154.59375 L 228.230469 154.59375 L 228.230469 152.726562 L 226.363281 152.726562 Z M 223.835938 152.730469 L 223.835938 154.601562 L 225.707031 154.601562 L 225.707031 152.730469 Z M 225.707031 150.207031 L 223.835938 150.207031 L 223.835938 152.074219 L 225.707031 152.074219 Z M 228.230469 150.207031 L 226.363281 150.207031 L 226.363281 152.074219 L 228.230469 152.074219 Z M 228.230469 150.207031 " fill-opacity="1" fill-rule="evenodd"/><path fill="#045174" d="M 289.265625 184.160156 L 286.042969 184.160156 L 286.042969 181.257812 Z M 289.265625 184.160156 " fill-opacity="1" fill-rule="evenodd"/><path fill="#045174" d="M 248.230469 184.160156 L 251.457031 184.160156 L 251.457031 181.257812 Z M 248.230469 184.160156 " fill-opacity="1" fill-rule="evenodd"/><path fill="#045174" d="M 186.5 178.105469 L 181.214844 178.105469 L 181.214844 172.824219 L 186.5 172.824219 Z M 193.652344 172.824219 L 193.652344 178.113281 L 188.363281 178.113281 L 188.363281 172.824219 Z M 188.363281 165.671875 L 193.648438 165.671875 L 193.648438 170.957031 L 188.363281 170.957031 Z M 181.210938 165.671875 L 186.496094 165.671875 L 186.496094 170.957031 L 181.210938 170.957031 Z M 181.210938 165.671875 " fill-opacity="1" fill-rule="evenodd"/><g clip-path="url(#28f766d25a)"><path fill="#e87a00" d="M 212.375 188.488281 L 297.558594 188.488281 L 297.558594 190.84375 L 212.375 190.84375 Z M 212.375 188.488281 " fill-opacity="1" fill-rule="evenodd"/></g><g clip-path="url(#856cb3ceef)"><path fill="#e87a00" d="M 77.429688 188.488281 L 162.617188 188.488281 L 162.617188 190.84375 L 77.429688 190.84375 Z M 77.429688 188.488281 " fill-opacity="1" fill-rule="evenodd"/></g></svg>